<?xml version="1.0" encoding="UTF-8" standalone="no"?><!DOCTYPE svg PUBLIC "-//W3C//DTD SVG 1.1//EN" "http://www.w3.org/Graphics/SVG/1.1/DTD/svg11.dtd"><svg width="100%" height="100%" viewBox="0 0 2122 2122" version="1.1" xmlns="http://www.w3.org/2000/svg" xmlns:xlink="http://www.w3.org/1999/xlink" xml:space="preserve" xmlns:serif="http://www.serif.com/" style="fill-rule:evenodd;clip-rule:evenodd;stroke-linejoin:round;stroke-miterlimit:2;"><g><path d="M1212.12,113.131c27.397,0 49.618,22.215 49.618,49.62l0,266.925c0,27.405 -22.221,49.618 -49.618,49.618c-27.397,0 -49.618,-22.213 -49.618,-49.618l-0,-266.925c-0,-27.405 22.221,-49.62 49.618,-49.62Zm-847.804,0c27.401,0 49.621,22.215 49.621,49.62l0,266.925c0,27.405 -22.22,49.618 -49.621,49.618c-27.403,0 -49.623,-22.213 -49.623,-49.618l0,-266.925c0,-27.405 22.22,-49.62 49.623,-49.62Zm-173.439,273.04c14.969,-6.97 31.054,-10.934 48.058,-11.483l-0,54.988c-0,69.129 56.248,125.378 125.381,125.378c69.132,0 125.38,-56.249 125.38,-125.378l-0,-55.097l597.044,-0l-0,55.097c-0,69.129 56.249,125.378 125.38,125.378c69.132,0 125.381,-56.249 125.381,-125.378l-0,-54.988c16.995,0.549 33.078,4.513 48.061,11.483c24.145,11.24 45.392,30.444 60.577,55.26c15.198,24.799 24.259,55.006 24.259,87.923l-0,56.921l-1364.36,0l-0,-56.921c-0.015,-43.875 16.148,-83.006 41.353,-110.781c12.59,-13.886 27.381,-24.894 43.49,-32.402Zm51.997,1197.04c-18.467,-0.013 -35.872,-4.075 -51.997,-11.592c-24.147,-11.237 -45.388,-30.446 -60.583,-55.249c-15.19,-24.803 -24.26,-55.009 -24.26,-87.936l-0,-766.396l1364.36,-0l-0,381.08c-0,11.718 5.327,22.171 13.679,29.118c6.568,5.467 14.996,8.757 24.208,8.757c20.918,-0 37.875,-16.957 37.875,-37.875l0,-513.76c-0.012,-62.526 -22.968,-119.722 -60.994,-161.676c-19.02,-20.978 -41.887,-38.181 -67.575,-50.167c-24.55,-11.459 -51.732,-18.028 -80.09,-18.587l-0,-136.173c-0,-69.136 -56.249,-125.378 -125.381,-125.378c-69.131,-0 -125.38,56.242 -125.38,125.378l-0,136.069l-597.044,0l-0,-136.069c-0,-69.136 -56.248,-125.378 -125.38,-125.378c-69.133,-0 -125.381,56.242 -125.381,125.378l-0,136.173c-28.354,0.559 -55.542,7.128 -80.079,18.587c-38.567,18.002 -70.683,47.651 -93.163,84.339c-22.487,36.698 -35.419,80.623 -35.419,127.504l0,899.076c0.01,62.526 22.962,119.724 60.995,161.686c19.026,20.969 41.887,38.179 67.587,50.162c25.675,11.997 54.236,18.704 84.018,18.691l785.124,0c20.917,0 37.875,-16.957 37.875,-37.875c-0,-11.718 -5.328,-22.183 -13.68,-29.13c-6.555,-5.467 -14.996,-8.757 -24.195,-8.757l-785.124,-0Z" style="fill:#231f20;fill-rule:nonzero;"/><path d="M242.392,795.498l217.301,-0l-0,217.296l-217.301,-0l-0,-217.296Zm217.301,-75.759l-217.301,0c-41.844,0 -75.759,33.916 -75.759,75.759l0,217.296c0,41.848 33.915,75.762 75.759,75.762l217.301,0c41.844,0 75.763,-33.914 75.763,-75.762l0,-217.296c0,-41.843 -33.919,-75.759 -75.763,-75.759Z" style="fill:#231f20;fill-rule:nonzero;"/><path d="M679.564,795.498l217.301,-0l0,217.296l-217.301,-0l0,-217.296Zm217.301,-75.759l-217.301,0c-41.843,0 -75.758,33.916 -75.758,75.759l-0,217.296c-0,41.848 33.915,75.762 75.758,75.762l217.301,0c41.844,0 75.754,-33.914 75.754,-75.762l-0,-217.296c-0,-41.843 -33.91,-75.759 -75.754,-75.759Z" style="fill:#231f20;fill-rule:nonzero;"/><path d="M242.392,1212.44l217.301,-0l-0,217.302l-217.301,0l-0,-217.302Zm217.301,-75.763l-217.301,0c-41.844,0 -75.759,33.927 -75.759,75.763l0,217.302c0,41.848 33.915,75.762 75.759,75.762l217.301,0c41.844,0 75.763,-33.914 75.763,-75.762l0,-217.302c0,-41.836 -33.919,-75.763 -75.763,-75.763Z" style="fill:#231f20;fill-rule:nonzero;"/><path d="M679.564,1212.44l217.301,-0l0,217.302l-217.301,0l0,-217.302Zm217.301,-75.763l-217.301,0c-41.843,0 -75.758,33.927 -75.758,75.763l-0,217.302c-0,41.848 33.915,75.762 75.758,75.762l217.301,0c41.844,0 75.754,-33.914 75.754,-75.762l-0,-217.302c-0,-41.836 -33.91,-75.763 -75.754,-75.763Z" style="fill:#231f20;fill-rule:nonzero;"/><path d="M1334.04,1012.79l-217.302,-0l-0,-217.296l217.302,-0l0,217.296Zm0,75.762c41.836,0 75.762,-33.914 75.762,-75.762l0,-217.296c0,-41.843 -33.926,-75.759 -75.762,-75.759l-217.302,0c-41.849,0 -75.763,33.916 -75.763,75.759l0,217.296c0,41.848 33.914,75.762 75.763,75.762l217.302,0Z" style="fill:#231f20;fill-rule:nonzero;"/><path d="M2001.59,1991.64c-11.49,11.478 -26.536,17.223 -41.595,17.223c-15.046,0 -30.105,-5.745 -41.595,-17.223l-231.729,-231.754c-56.274,41.469 -123.026,62.21 -189.791,62.21c-82.001,-0 -164.015,-31.295 -226.591,-93.858c-125.128,-125.14 -125.128,-328.03 -0,-453.169c62.576,-62.577 144.577,-93.859 226.591,-93.859c82.013,0 164.027,31.282 226.591,93.859c108.322,108.334 122.862,274.905 43.632,398.894l234.487,234.487c22.968,22.968 22.968,60.21 0,83.19Zm-141.451,-331.774c26.966,-62.147 37.837,-130.949 30.839,-198.967c-9.276,-90.188 -49.745,-175.201 -113.928,-239.397c-74.839,-74.838 -174.341,-116.041 -280.17,-116.041c-14.237,-0 -28.346,0.797 -42.304,2.277c-89.822,9.479 -173.088,48.999 -237.841,113.764c-84.924,84.912 -123.039,199.093 -114.611,310.376c6.922,91.15 45.049,180.364 114.599,249.926c74.838,74.839 174.327,116.041 280.157,116.041c62.829,0 123.457,-14.464 178.364,-42.24l189.59,189.589c25.41,25.423 59.223,39.431 95.161,39.431c35.951,0 69.752,-14.008 95.174,-39.431c25.411,-25.41 39.406,-59.198 39.406,-95.149c0,-35.951 -13.995,-69.751 -39.406,-95.161l-195.03,-195.018Z" style="fill:#231f20;fill-rule:nonzero;"/><path d="M1496.88,1652.38c-40.254,0 -78.104,-15.679 -106.576,-44.151c-28.46,-28.46 -44.139,-66.31 -44.139,-106.576c-0,-40.254 15.679,-78.104 44.139,-106.576c28.472,-28.46 66.322,-44.139 106.576,-44.139c40.266,0 78.116,15.679 106.588,44.139c28.46,28.472 44.139,66.322 44.139,106.576c0,40.266 -15.679,78.116 -44.139,106.576c-28.472,28.472 -66.322,44.151 -106.588,44.151Zm-0,-377.204c-57.958,-0 -115.928,22.107 -160.143,66.334c-88.442,88.442 -88.442,231.856 0,320.298c44.215,44.214 102.185,66.334 160.143,66.334c57.97,0 115.927,-22.12 160.155,-66.334c88.442,-88.442 88.442,-231.856 -0,-320.298c-44.228,-44.227 -102.185,-66.334 -160.155,-66.334Z" style="fill:#231f20;fill-rule:nonzero;"/></g></svg>