<?xml version="1.0" encoding="UTF-8" standalone="no"?><!DOCTYPE svg PUBLIC "-//W3C//DTD SVG 1.1//EN" "http://www.w3.org/Graphics/SVG/1.1/DTD/svg11.dtd"><svg width="100%" height="100%" viewBox="0 0 2122 2122" version="1.1" xmlns="http://www.w3.org/2000/svg" xmlns:xlink="http://www.w3.org/1999/xlink" xml:space="preserve" xmlns:serif="http://www.serif.com/" style="fill-rule:evenodd;clip-rule:evenodd;stroke-linejoin:round;stroke-miterlimit:2;"><g><path d="M1193.92,311.625c21.65,0 39.21,17.555 39.21,39.211l0,210.934c0,21.656 -17.56,39.21 -39.21,39.21c-21.65,-0 -39.21,-17.554 -39.21,-39.21l-0,-210.934c-0,-21.656 17.56,-39.211 39.21,-39.211Zm-669.964,0c21.653,0 39.212,17.555 39.212,39.211l0,210.934c0,21.656 -17.559,39.21 -39.212,39.21c-21.655,-0 -39.214,-17.554 -39.214,-39.21l0,-210.934c0,-21.656 17.559,-39.211 39.214,-39.211Zm-137.058,215.766c11.829,-5.508 24.54,-8.641 37.977,-9.075l0,43.454c0,54.628 44.449,99.078 99.081,99.078c54.63,0 99.079,-44.45 99.079,-99.078l-0,-43.54l471.805,-0l-0,43.54c-0,54.628 44.45,99.078 99.08,99.078c54.63,0 99.08,-44.45 99.08,-99.078l0,-43.454c13.43,0.434 26.14,3.567 37.98,9.075c19.08,8.882 35.87,24.058 47.87,43.668c12.01,19.597 19.17,43.468 19.17,69.48l0,44.981l-1078.17,0l-0,-44.981c-0.012,-34.672 12.761,-65.594 32.679,-87.543c9.949,-10.973 21.637,-19.672 34.367,-25.605Zm41.09,945.939c-14.593,-0.01 -28.347,-3.22 -41.09,-9.16c-19.082,-8.88 -35.867,-24.06 -47.875,-43.66c-12.003,-19.6 -19.171,-43.47 -19.171,-69.49l-0,-605.633l1078.17,-0l0,301.143c0,9.26 4.21,17.52 10.81,23.01c5.19,4.32 11.85,6.92 19.13,6.92c16.53,-0 29.93,-13.4 29.93,-29.93l0,-405.991c-0.01,-49.41 -18.15,-94.609 -48.2,-127.762c-15.03,-16.578 -33.1,-30.172 -53.4,-39.644c-19.4,-9.055 -40.88,-14.246 -63.29,-14.688l0,-107.609c0,-54.633 -44.45,-99.078 -99.08,-99.078c-54.63,0 -99.08,44.445 -99.08,99.078l-0,107.527l-471.805,0l-0,-107.527c-0,-54.633 -44.449,-99.078 -99.079,-99.078c-54.632,0 -99.081,44.445 -99.081,99.078l-0,107.609c-22.406,0.442 -43.891,5.633 -63.281,14.688c-30.477,14.226 -55.856,37.656 -73.621,66.648c-17.77,29 -27.989,63.711 -27.989,100.758l0,710.481c0.008,49.41 18.145,94.61 48.2,127.77c15.035,16.57 33.101,30.17 53.41,39.64c20.289,9.48 42.859,14.78 66.394,14.77l620.432,0c16.53,0 29.93,-13.4 29.93,-29.93c-0,-9.26 -4.21,-17.53 -10.81,-23.02c-5.18,-4.32 -11.85,-6.92 -19.12,-6.92l-620.432,0Z" style="fill:#231f20;fill-rule:nonzero;"/><path d="M427.609,850.855l171.719,-0l0,171.715l-171.719,-0l0,-171.715Zm171.719,-59.867l-171.719,0c-33.066,0 -59.867,26.801 -59.867,59.867l0,171.715c0,33.07 26.801,59.87 59.867,59.87l171.719,-0c33.067,-0 59.871,-26.8 59.871,-59.87l-0,-171.715c-0,-33.066 -26.804,-59.867 -59.871,-59.867Z" style="fill:#231f20;fill-rule:nonzero;"/><path d="M773.078,850.855l171.719,-0l-0,171.715l-171.719,-0l0,-171.715Zm171.719,-59.867l-171.719,0c-33.066,0 -59.867,26.801 -59.867,59.867l-0,171.715c-0,33.07 26.801,59.87 59.867,59.87l171.719,-0c33.066,-0 59.863,-26.8 59.863,-59.87l-0,-171.715c-0,-33.066 -26.797,-59.867 -59.863,-59.867Z" style="fill:#231f20;fill-rule:nonzero;"/><path d="M427.609,1180.34l171.719,0l0,171.72l-171.719,-0l0,-171.72Zm171.719,-59.87l-171.719,-0c-33.066,-0 -59.867,26.81 -59.867,59.87l0,171.72c0,33.07 26.801,59.87 59.867,59.87l171.719,-0c33.067,-0 59.871,-26.8 59.871,-59.87l-0,-171.72c-0,-33.06 -26.804,-59.87 -59.871,-59.87Z" style="fill:#231f20;fill-rule:nonzero;"/><path d="M773.078,1180.34l171.719,0l-0,171.72l-171.719,-0l0,-171.72Zm171.719,-59.87l-171.719,-0c-33.066,-0 -59.867,26.81 -59.867,59.87l-0,171.72c-0,33.07 26.801,59.87 59.867,59.87l171.719,-0c33.066,-0 59.863,-26.8 59.863,-59.87l-0,-171.72c-0,-33.06 -26.797,-59.87 -59.863,-59.87Z" style="fill:#231f20;fill-rule:nonzero;"/><path d="M1290.27,1022.57l-171.72,-0l0,-171.715l171.72,-0l0,171.715Zm0,59.87c33.06,-0 59.87,-26.8 59.87,-59.87l0,-171.715c0,-33.066 -26.81,-59.867 -59.87,-59.867l-171.72,0c-33.07,0 -59.87,26.801 -59.87,59.867l0,171.715c0,33.07 26.8,59.87 59.87,59.87l171.72,-0Z" style="fill:#231f20;fill-rule:nonzero;"/><path d="M1817.79,1796.09c-9.08,9.07 -20.97,13.61 -32.87,13.61c-11.89,0 -23.79,-4.54 -32.87,-13.61l-183.12,-183.14c-44.47,32.77 -97.22,49.16 -149.98,49.16c-64.8,-0 -129.61,-24.73 -179.06,-74.17c-98.88,-98.89 -98.88,-259.22 0,-358.11c49.45,-49.45 114.25,-74.17 179.06,-74.17c64.81,-0 129.62,24.72 179.06,74.17c85.6,85.61 97.09,217.24 34.48,315.22l185.3,185.3c18.15,18.15 18.15,47.58 0,65.74Zm-111.78,-262.18c21.31,-49.11 29.9,-103.48 24.37,-157.23c-7.33,-71.27 -39.31,-138.45 -90.03,-189.18c-59.14,-59.14 -137.77,-91.7 -221.4,-91.7c-11.25,0 -22.4,0.63 -33.43,1.8c-70.98,7.49 -136.78,38.72 -187.95,89.9c-67.11,67.1 -97.23,157.33 -90.57,245.27c5.47,72.03 35.6,142.53 90.56,197.5c59.14,59.14 137.76,91.7 221.39,91.7c49.65,0 97.56,-11.43 140.95,-33.38l149.82,149.82c20.08,20.09 46.8,31.16 75.2,31.16c28.41,0 55.12,-11.07 75.21,-31.16c20.08,-20.08 31.14,-46.78 31.14,-75.19c0,-28.41 -11.06,-55.12 -31.14,-75.2l-154.12,-154.11Z" style="fill:#231f20;fill-rule:nonzero;"/><path d="M1418.95,1527.99c-31.81,-0 -61.72,-12.39 -84.22,-34.89c-22.49,-22.49 -34.88,-52.4 -34.88,-84.22c-0,-31.81 12.39,-61.72 34.88,-84.22c22.5,-22.49 52.41,-34.88 84.22,-34.88c31.82,0 61.73,12.39 84.23,34.88c22.49,22.5 34.88,52.41 34.88,84.22c0,31.82 -12.39,61.73 -34.88,84.22c-22.5,22.5 -52.41,34.89 -84.23,34.89Zm-0,-298.08c-45.8,-0 -91.61,17.47 -126.55,52.42c-69.89,69.89 -69.89,183.22 0,253.11c34.94,34.94 80.75,52.42 126.55,52.42c45.81,-0 91.61,-17.48 126.56,-52.42c69.89,-69.89 69.89,-183.22 0,-253.11c-34.95,-34.95 -80.75,-52.42 -126.56,-52.42Z" style="fill:#231f20;fill-rule:nonzero;"/></g></svg>